#!OML:ASF F:\VICON\USERDATA\INSTALL\rory3\rory3.ASF
:FULLY-SPECIFIED
:DEGREES
529
root 1.07897 18.2419 0.978209 -179.102 -50.3699 -183.749
lowerback 12.4544 1.90153 0.00105106
upperback -0.33085 2.49974 0.00250817
thorax -7.34611 1.20419 -0.460255
lowerneck -21.5488 -4.14978 -11.8989
upperneck 30.849 -5.21536 7.96064
head 14.8609 -2.8336 4.28476
rclavicle -6.95249e-014 -8.34896e-015
rhumerus -34.4781 -8.3424 -79.3831
rradius 29.2299
rwrist 6.79706
rhand -16.1617 8.0728
rfingers 7.12502
rthumb 10.0441 -21.6675
lclavicle -6.95249e-014 -8.34896e-015
lhumerus -34.2185 7.27979 82.112
lradius 30.7867
lwrist -6.95972
lhand -18.8637 27.7627
lfingers 7.12502
lthumb 7.43673 57.612
rfemur -5.17972 -18.3093 20.848
rtibia 23.5551
rfoot -13.7506 -33.0397
rtoes 26.4976
lfemur -1.60201 15.7769 -17.3112
ltibia 22.9141
lfoot -1.41914 18.0166
ltoes -11.2701
530
root 1.05966 18.2351 0.994627 -179.228 -51.1282 -183.575
lowerback 12.3143 1.92506 0.0115179
upperback -0.284018 2.54305 0.14823
thorax -7.22301 1.22864 -0.314095
lowerneck -21.5414 -4.27613 -12.1041
upperneck 30.6873 -5.314 8.02236
head 14.8102 -2.88016 4.32303
rclavicle 1.49089e-016 5.96354e-015
rhumerus -34.5199 -8.71182 -78.9934
rradius 29.5142
rwrist 6.93551
rhand -15.9162 7.97063
rfingers 7.12502
rthumb 10.281 -21.7581
lclavicle 1.49089e-016 5.96354e-015
lhumerus -34.0854 7.53629 82.2223
lradius 30.7442
lwrist -7.13153
lhand -18.6018 26.7681
lfingers 7.12502
lthumb 7.68947 56.6083
rfemur -5.24745 -18.4919 20.9141
rtibia 23.8154
rfoot -13.4728 -33.4906
rtoes 25.8103
lfemur -1.36016 15.4544 -17.4259
ltibia 22.5802
lfoot -1.73044 17.9997
ltoes -12.1135
531
root 1.03768 18.2278 1.0116 -179.335 -51.7786 -183.47
lowerback 12.1989 1.96867 0.0076298
upperback -0.241815 2.60407 0.204708
thorax -7.11545 1.26027 -0.258251
lowerneck -21.5145 -4.32714 -12.0972
upperneck 30.5417 -5.39277 8.08834
head 14.7514 -2.89501 4.33052
rclavicle 3.59552e-014 -1.51076e-014
rhumerus -34.5198 -8.73904 -78.9258
rradius 29.645
rwrist 6.81246
rhand -15.9236 7.91194
rfingers 7.12502
rthumb 10.2739 -21.8171
lclavicle 3.59552e-014 -1.51076e-014
lhumerus -34.0095 7.45338 82.3179
lradius 30.8033
lwrist -7.19137
lhand -18.1475 24.796
lfingers 7.12502
lthumb 8.12799 54.6196
rfemur -5.25827 -18.758 20.8898
rtibia 24.029
rfoot -13.483 -33.7976
rtoes 26.0364
lfemur -1.07091 15.2453 -17.5806
ltibia 22.1752
lfoot -1.66925 17.9788
ltoes -12.7898
532
root 1.01257 18.2181 1.03267 -179.507 -52.4112 -183.277
lowerback 12.0561 2.00365 0.148332
upperback -0.188111 2.67151 0.231255
thorax -6.97221 1.28953 -0.314856
lowerneck -21.5879 -4.35606 -12.1072
upperneck 30.53 -5.47006 8.25011
head 14.7791 -2.90228 4.38663
rclavicle 9.12173e-014 -5.56597e-015
rhumerus -34.4565 -8.41432 -79.0563
rradius 29.6718
rwrist 6.36754
rhand -16.3606 8.02967
rfingers 7.12502
rthumb 9.85231 -21.7198
lclavicle 9.12173e-014 -5.56597e-015
lhumerus -33.9563 7.13533 82.4357
lradius 30.9623
lwrist -7.02492
lhand -17.5056 23.9191
lfingers 7.12502
lthumb 8.74742 53.7178
rfemur -5.26293 -18.9881 20.9033
rtibia 24.2342
rfoot -13.7023 -34.1166
rtoes 26.4878
lfemur -0.740793 14.875 -17.6869
ltibia 21.6514
lfoot -1.98786 18.208
ltoes -11.55
533
root 0.987745 18.2096 1.05464 -179.754 -53.0824 -182.912
lowerback 11.8665 2.02012 0.369743
upperback -0.150691 2.72991 0.323785
thorax -6.81934 1.31335 -0.344031
lowerneck -21.7265 -4.39454 -12.2176
upperneck 30.5955 -5.51976 8.40691
head 14.8567 -2.91166 4.46643
rclavicle -6.43814e-014 4.37326e-015
rhumerus -34.3043 -8.01657 -79.1348
rradius 29.644
rwrist 5.77099
rhand -16.5673 7.93763
rfingers 7.12502
rthumb 9.65287 -21.8212
lclavicle -6.43814e-014 4.37326e-015
lhumerus -33.9454 6.75715 82.6626
lradius 31.2382
lwrist -6.67016
lhand -17.0081 24.4646
lfingers 7.12502
lthumb 9.22748 54.2427
rfemur -5.36541 -19.2264 21.0518
rtibia 24.5186
rfoot -14.023 -34.4108
rtoes 26.8415
lfemur -0.42105 14.2482 -17.7034
ltibia 20.937
lfoot -2.50823 18.8054
ltoes -10.0065
534
root 0.967761 18.2009 1.07648 -179.92 -53.7741 -182.662
lowerback 11.814 1.99429 0.433695
upperback -0.194049 2.71215 0.414676
thorax -6.83748 1.30453 -0.280296
lowerneck -21.7734 -4.37621 -12.2231
upperneck 30.6514 -5.48981 8.42217
head 14.8891 -2.89687 4.4824
rclavicle -5.0044e-014 2.66371e-014
rhumerus -34.2584 -7.94136 -79.0857
rradius 29.6525
rwrist 5.70715
rhand -16.4225 7.87983
rfingers 7.12502
rthumb 9.79257 -21.8725
lclavicle -5.0044e-014 2.66371e-014
lhumerus -34.0649 6.57781 82.787
lradius 31.4719
lwrist -6.3489
lhand -17.507 25.3133
lfingers 7.12502
lthumb 8.74608 55.1121
rfemur -5.51806 -19.442 21.1465
rtibia 24.8402
rfoot -14.2556 -34.7708
rtoes 26.9853
lfemur -0.111782 13.7341 -17.7717
ltibia 20.0903
lfoot -2.7573 19.3488
ltoes -9.43282
535
root 0.955256 18.1922 1.10167 -179.881 -54.5081 -182.7
lowerback 11.9185 1.93735 0.268602
upperback -0.311203 2.61876 0.427667
thorax -7.02986 1.26461 -0.164045
lowerneck -21.6217 -4.26758 -11.8737
upperneck 30.626 -5.40223 8.19722
head 14.8096 -2.85125 4.34135
rclavicle 5.34234e-015 -2.38542e-015
rhumerus -34.4415 -8.06506 -79.0506
rradius 29.8177
rwrist 6.06685
rhand -16.3334 7.89527
rfingers 7.12502
rthumb 9.87852 -21.853
lclavicle 5.34234e-015 -2.38542e-015
lhumerus -34.2761 6.89317 82.6226
lradius 31.5641
lwrist -6.77398
lhand -17.873 25.6402
lfingers 7.12502
lthumb 8.39293 55.4535
rfemur -5.69834 -19.4071 21.1001
rtibia 25.1704
rfoot -14.5314 -35.3987
rtoes 27.3991
lfemur 0.165354 13.171 -18.0132
ltibia 19.1805
lfoot -3.02113 19.7625
ltoes -8.12171
536
root 0.93674 18.1855 1.12511 -179.915 -55.2578 -182.618
lowerback 11.8934 1.92539 0.199144
upperback -0.383131 2.59838 0.465706
thorax -7.09736 1.25837 -0.0820607
lowerneck -21.5621 -4.27583 -11.669
upperneck 30.645 -5.45274 8.05663
head 14.7991 -2.86875 4.23663
rclavicle -5.61442e-014 1.98785e-015
rhumerus -34.623 -8.25201 -78.9427
rradius 30.0019
rwrist 6.39085
rhand -16.1635 7.7036
rfingers 7.12502
rthumb 10.0424 -22.0368
lclavicle -5.61442e-014 1.98785e-015
lhumerus -34.342 7.22073 82.5299
lradius 31.5622
lwrist -7.44359
lhand -17.9496 25.6172
lfingers 7.12502
lthumb 8.31897 55.4334
rfemur -5.87725 -19.5793 21.0803
rtibia 25.5276
rfoot -14.5509 -35.8398
rtoes 27.2561
lfemur 0.490719 12.3898 -18.2022
ltibia 18.2275
lfoot -3.48484 20.128
ltoes -6.00728
537
root 0.910172 18.1762 1.14639 -180.162 -55.9623 -182.317
lowerback 11.7739 1.97168 0.362555
upperback -0.366834 2.68853 0.559267
thorax -7.00949 1.29885 -0.086596
lowerneck -21.6701 -4.4141 -11.9631
upperneck 30.6722 -5.59169 8.24872
head 14.8738 -2.9318 4.34439
rclavicle -4.66771e-014 -1.03368e-014
rhumerus -34.6224 -8.2594 -78.7637
rradius 30.0458
rwrist 6.16894
rhand -15.7812 7.56126
rfingers 7.12502
rthumb 10.4113 -22.161
lclavicle -4.66771e-014 -1.03368e-014
lhumerus -34.3029 7.06924 82.7767
lradius 31.6516
lwrist -7.49643
lhand -17.8611 25.5871
lfingers 7.12502
lthumb 8.40441 55.3999
rfemur -5.95853 -19.8992 21.1417
rtibia 25.8697
rfoot -14.6377 -36.113
rtoes 27.0096
lfemur 0.873164 11.5879 -18.2688
ltibia 17.3378
lfoot -3.63468 20.609
ltoes -5.09991
538
root 0.886116 18.1637 1.16894 -180.288 -56.5994 -182.248
lowerback 11.7357 2.05219 0.375041
upperback -0.334516 2.80043 0.62018
thorax -6.95602 1.35429 -0.0469697
lowerneck -21.6471 -4.50625 -12.164
upperneck 30.5645 -5.66688 8.35069
head 14.8427 -2.96655 4.4053
rclavicle -5.29264e-015 1.19271e-015
rhumerus -34.5846 -8.15795 -78.6558
rradius 30.0363
rwrist 5.61838
rhand -15.7753 7.61948
rfingers 7.12502
rthumb 10.4169 -22.1025
lclavicle -5.29264e-015 1.19271e-015
lhumerus -34.3268 6.74804 83.0845
lradius 31.8262
lwrist -7.35667
lhand -17.3661 25.4415
lfingers 7.12502
lthumb 8.88203 55.2346
rfemur -5.94959 -20.0806 21.0476
rtibia 26.1624
rfoot -15.1496 -36.3814
rtoes 27.4436
lfemur 1.23619 10.8174 -18.4703
ltibia 16.6263
lfoot -3.55367 21.1455
ltoes -5.15882
